<svg width="179" height="64" viewBox="0 0 179 64" fill="none" xmlns="http://www.w3.org/2000/svg">
<path d="M145.768 28.9372C146.028 29.1968 146.38 29.3426 146.748 29.3426C147.115 29.3426 147.468 29.1968 147.728 28.9372L161.005 15.6533C161.134 15.5248 161.237 15.3719 161.307 15.2036C161.376 15.0353 161.412 14.8549 161.412 14.6726C161.412 14.4904 161.376 14.3099 161.307 14.1416C161.237 13.9733 161.134 13.8205 161.005 13.6919L147.728 0.405374C147.468 0.145775 147.115 0 146.748 0C146.38 0 146.028 0.145775 145.768 0.405374L132.48 13.6866C132.221 13.947 132.075 14.2997 132.075 14.6674C132.075 15.035 132.221 15.3877 132.48 15.6481L145.768 28.9372ZM140.813 8.73438C141.987 7.55835 143.483 6.75717 145.113 6.43221C146.742 6.10725 148.431 6.2731 149.966 6.9088C151.501 7.5445 152.813 8.62147 153.737 10.0035C154.66 11.3854 155.153 13.0104 155.153 14.6726C155.153 16.3349 154.66 17.9598 153.737 19.3418C152.813 20.7238 151.501 21.8007 149.966 22.4364C148.431 23.0721 146.742 23.238 145.113 22.913C143.483 22.5881 141.987 21.7869 140.813 20.6108C139.24 19.0353 138.356 16.8995 138.356 14.6726C138.356 12.4457 139.24 10.3099 140.813 8.73438V8.73438Z" fill="#87AB48"/>
<path d="M178.297 31.0168L165.023 17.7251C164.894 17.5959 164.741 17.4934 164.573 17.4234C164.405 17.3535 164.225 17.3175 164.043 17.3175C163.86 17.3175 163.68 17.3535 163.512 17.4234C163.344 17.4934 163.191 17.5959 163.062 17.7251L149.78 31.0168C149.521 31.2772 149.375 31.6299 149.375 31.9975C149.375 32.3652 149.521 32.7179 149.78 32.9783L163.057 46.2464C163.317 46.506 163.67 46.6518 164.037 46.6518C164.405 46.6518 164.757 46.506 165.017 46.2464L178.297 32.9599C178.551 32.7003 178.693 32.3516 178.693 31.9884C178.693 31.6251 178.551 31.2764 178.297 31.0168V31.0168ZM169.972 37.9358C168.798 39.1118 167.302 39.913 165.673 40.2379C164.043 40.5629 162.354 40.397 160.819 39.7613C159.284 39.1257 157.972 38.0487 157.049 36.6667C156.125 35.2847 155.633 33.6598 155.633 31.9975C155.633 30.3353 156.125 28.7104 157.049 27.3284C157.972 25.9464 159.284 24.8694 160.819 24.2337C162.354 23.598 164.043 23.4322 165.673 23.7571C167.302 24.0821 168.798 24.8833 169.972 26.0593C171.543 27.6345 172.425 29.7686 172.425 31.9936C172.425 34.2186 171.543 36.3527 169.972 37.9279V37.9358Z" fill="#BAB9B9"/>
<path d="M147.728 35.0632C147.6 34.934 147.447 34.8315 147.279 34.7616C147.11 34.6916 146.93 34.6556 146.748 34.6556C146.566 34.6556 146.385 34.6916 146.217 34.7616C146.049 34.8315 145.896 34.934 145.768 35.0632L132.48 48.3471C132.221 48.6074 132.075 48.9601 132.075 49.3278C132.075 49.6955 132.221 50.0482 132.48 50.3085L145.76 63.5924C145.888 63.7216 146.041 63.8241 146.209 63.894C146.378 63.964 146.558 64 146.74 64C146.922 64 147.103 63.964 147.271 63.894C147.439 63.8241 147.592 63.7216 147.72 63.5924L160.997 50.3085C161.126 50.18 161.229 50.0271 161.299 49.8588C161.369 49.6905 161.405 49.5101 161.405 49.3278C161.405 49.1455 161.369 48.9651 161.299 48.7968C161.229 48.6285 161.126 48.4756 160.997 48.3471L147.728 35.0632ZM152.688 55.266C151.514 56.4421 150.018 57.2432 148.388 57.5682C146.759 57.8932 145.07 57.7273 143.535 57.0916C142 56.4559 140.688 55.3789 139.765 53.997C138.841 52.615 138.349 50.9901 138.349 49.3278C138.349 47.6655 138.841 46.0406 139.765 44.6586C140.688 43.2767 142 42.1997 143.535 41.564C145.07 40.9283 146.759 40.7624 148.388 41.0874C150.018 41.4124 151.514 42.2135 152.688 43.3896C154.261 44.9651 155.145 47.1009 155.145 49.3278C155.145 51.5547 154.261 53.6905 152.688 55.266Z" fill="black"/>
<path d="M6.36419 22.8374C6.37721 22.7829 6.40334 22.7324 6.44029 22.6904C6.48373 22.6343 6.53499 22.5848 6.59251 22.5433C6.65057 22.498 6.71517 22.4617 6.78409 22.4357C6.84588 22.4108 6.9117 22.3974 6.9783 22.3963H9.86515C9.98543 22.3932 10.1025 22.4353 10.1932 22.5144C10.2689 22.5768 10.3375 22.6472 10.3979 22.7245L10.7076 23.3704L16.6571 38.7208C16.6879 38.7787 16.7011 38.8444 16.695 38.9097C16.689 38.9751 16.6639 39.0372 16.623 39.0884C16.5649 39.1413 16.4963 39.1813 16.4217 39.2057C16.347 39.2302 16.2681 39.2385 16.19 39.2302H12.9252C12.7846 39.2391 12.6447 39.2052 12.5237 39.1331C12.4173 39.0531 12.3399 38.9407 12.3032 38.8127C12.151 38.4276 12.004 38.0434 11.8623 37.66C11.7206 37.2766 11.5763 36.8933 11.4293 36.5099H5.41415C5.26893 36.8968 5.12371 37.2801 4.9785 37.66C4.83328 38.0399 4.68719 38.4241 4.54022 38.8127C4.50664 38.9381 4.43088 39.0481 4.32571 39.1242C4.22055 39.2002 4.0924 39.2377 3.96285 39.2302H0.621976C0.493391 39.2361 0.366903 39.1961 0.265056 39.1173C0.217204 39.0765 0.185584 39.0199 0.175951 38.9577C0.166318 38.8955 0.179311 38.832 0.212568 38.7786L6.36419 22.8374ZM8.42697 27.6899C8.28525 28.0759 8.13829 28.4776 7.99132 28.9371C7.84435 29.3966 7.69739 29.8325 7.55567 30.2868C7.41395 30.741 7.26698 31.1874 7.12002 31.6286C6.97305 32.0697 6.82608 32.4846 6.68174 32.8706H10.1617L8.42697 27.6899Z" fill="#BAB9B9"/>
<path d="M28.1886 37.8151C27.9728 38.031 27.7441 38.2336 27.5037 38.4217C27.2369 38.6249 26.9533 38.805 26.656 38.96C26.341 39.1212 26.0104 39.2497 25.6692 39.3433C25.306 39.4437 24.9306 39.4932 24.5538 39.4904C23.5771 39.5013 22.6091 39.3044 21.7142 38.9127C20.8716 38.5442 20.1126 38.0082 19.4835 37.3372C18.8492 36.6506 18.3529 35.8483 18.0217 34.974C17.3183 33.0856 17.3183 31.0069 18.0217 29.1185C18.3529 28.2443 18.8492 27.4419 19.4835 26.7553C20.111 26.0824 20.8703 25.5461 21.7142 25.1798C22.6099 24.7911 23.5776 24.596 24.5538 24.6074C24.9362 24.6034 25.318 24.6394 25.6928 24.715C26.3215 24.8359 26.9119 25.1061 27.4144 25.5028C27.6541 25.6935 27.8796 25.9015 28.0889 26.1251V21.3987C28.0826 21.1742 28.1614 20.9557 28.3094 20.7869C28.3941 20.6971 28.4974 20.6271 28.6122 20.5817C28.7269 20.5363 28.8502 20.5167 28.9733 20.5243H31.5216C31.6287 20.5261 31.7345 20.5475 31.8339 20.5873C31.9433 20.6278 32.0446 20.6874 32.1331 20.7632C32.2237 20.8348 32.2987 20.9242 32.3536 21.0258C32.4116 21.1339 32.4414 21.2549 32.4402 21.3777V38.3692C32.4402 38.9521 32.1331 39.2409 31.5216 39.2409H29.2883C29.1685 39.2463 29.0489 39.2275 28.9366 39.1858C28.8548 39.1475 28.783 39.0909 28.7266 39.0204C28.6636 38.9406 28.6123 38.8521 28.5744 38.7578C28.5298 38.6501 28.4721 38.5215 28.4038 38.3797L28.1886 37.8151ZM21.5594 32.0384C21.556 32.5149 21.635 32.9884 21.7929 33.4379C21.9366 33.8544 22.1614 34.2381 22.4543 34.567C22.7551 34.8983 23.1229 35.1617 23.5333 35.3396C23.9438 35.5175 24.3874 35.6059 24.8346 35.5989C25.3024 35.6025 25.7662 35.5132 26.1993 35.3364C26.6151 35.1713 26.9948 34.9269 27.3173 34.6169C27.6376 34.3075 27.8967 33.9405 28.081 33.5351C28.2738 33.1137 28.3835 32.6589 28.4038 32.1959V32.0384C28.4097 31.5642 28.3205 31.0936 28.1414 30.6546C27.967 30.2246 27.7112 29.8323 27.3882 29.4992C27.0664 29.165 26.6821 28.8973 26.2571 28.7115C25.8123 28.5157 25.331 28.4173 24.8451 28.4227C24.3811 28.4158 23.9217 28.5146 23.5014 28.7115C23.0997 28.8968 22.7419 29.1653 22.4517 29.4992C22.1606 29.8393 21.9362 30.2313 21.7903 30.6546C21.6344 31.1009 21.5563 31.5708 21.5594 32.0436V32.0384Z" fill="#BAB9B9"/>
<path d="M34.9995 32.0435C34.9966 31.366 35.0849 30.6913 35.2619 30.0374C35.4326 29.4122 35.684 28.8119 36.0099 28.2518C36.3296 27.7051 36.7186 27.2021 37.1673 26.7551C37.6142 26.3066 38.1191 25.9198 38.6684 25.605C39.2288 25.2827 39.8287 25.0346 40.453 24.8672C41.105 24.6913 41.7775 24.603 42.4528 24.6046C43.426 24.5992 44.3906 24.7862 45.2913 25.1548C46.1921 25.5234 47.0112 26.0663 47.7016 26.7525C48.3727 27.4322 48.9073 28.2345 49.2763 29.1157C49.6715 30.0416 49.8707 31.0394 49.8615 32.0461C49.8637 33.3759 49.5132 34.6824 48.8459 35.8325C47.8728 37.504 46.2816 38.7254 44.4159 39.2329C43.772 39.409 43.1072 39.4973 42.4397 39.4955C41.7644 39.4971 41.0919 39.4088 40.4399 39.2329C38.5687 38.7298 36.9718 37.5077 35.9968 35.8325C35.6727 35.2715 35.4214 34.6715 35.2488 34.0469C35.0758 33.3934 34.9919 32.7195 34.9995 32.0435ZM39.1356 32.0435C39.1313 32.5198 39.2094 32.9933 39.3665 33.443C39.5103 33.8588 39.7341 34.2424 40.0252 34.5721C40.3131 34.8922 40.6643 35.1488 41.0566 35.3257C41.4858 35.517 41.9516 35.612 42.4213 35.604C42.88 35.6113 43.3345 35.5162 43.7519 35.3257C44.1372 35.1484 44.4806 34.8916 44.7597 34.5721C45.0435 34.2411 45.2593 33.8575 45.3948 33.443C45.6887 32.5385 45.6887 31.5642 45.3948 30.6597C45.257 30.2383 45.0416 29.8464 44.7597 29.5043C44.4759 29.1605 44.1183 28.8851 43.7134 28.6987C43.3086 28.5123 42.8669 28.4197 42.4213 28.4278C41.9504 28.4193 41.4838 28.5181 41.0566 28.7166C40.6604 28.9022 40.3087 29.1709 40.0252 29.5043C39.7359 29.8452 39.5125 30.237 39.3665 30.6597C39.2111 31.1044 39.133 31.5724 39.1356 32.0435Z" fill="#BAB9B9"/>
<path d="M52.4354 24.9776C52.5229 24.8996 52.6284 24.8446 52.7424 24.8174C52.8426 24.7962 52.9445 24.7847 53.0469 24.7833H54.758C54.8805 24.7794 55.0024 24.8027 55.1149 24.8515C55.206 24.8949 55.286 24.9587 55.3485 25.038C55.4097 25.119 55.4608 25.2071 55.5007 25.3005C55.5427 25.403 55.582 25.5159 55.6188 25.634L56.0964 27.0073L56.7368 26.1749C56.9573 25.886 57.214 25.6265 57.5005 25.403C57.8188 25.159 58.1729 24.966 58.5502 24.8305C59.0307 24.6675 59.5363 24.591 60.0435 24.6047C61.0274 24.5933 62.0028 24.7883 62.9068 25.1771C63.7573 25.5438 64.5243 26.0798 65.1611 26.7526C65.8011 27.4378 66.3028 28.2403 66.6387 29.1158C67.3489 31.003 67.3489 33.0842 66.6387 34.9713C66.3029 35.847 65.8012 36.6494 65.1611 37.3345C64.5228 38.0055 63.7561 38.5413 62.9068 38.91C62.0035 39.3017 61.0279 39.4986 60.0435 39.4877C59.6146 39.4965 59.1868 39.438 58.776 39.3144C58.4403 39.2062 58.1214 39.0515 57.8285 38.8549C57.5625 38.6748 57.3178 38.4652 57.0989 38.2299C56.8864 38.0041 56.6791 37.7783 56.4743 37.5499V42.833C56.4799 43.0438 56.408 43.2493 56.2723 43.4106C56.1909 43.4953 56.0916 43.5607 55.9818 43.6021C55.8719 43.6434 55.7541 43.6596 55.6372 43.6496H53.0416C52.941 43.648 52.8414 43.6284 52.7477 43.5918C52.6419 43.5553 52.5427 43.5021 52.4537 43.4343C52.3604 43.3634 52.2827 43.274 52.2254 43.1717C52.1648 43.0664 52.134 42.9466 52.1362 42.8251V25.6156C52.1317 25.4854 52.1606 25.3561 52.2202 25.2402C52.28 25.1435 52.3524 25.0552 52.4354 24.9776V24.9776ZM63.0196 32.0515C63.021 31.5815 62.9402 31.115 62.7808 30.6729C62.632 30.254 62.4049 29.8673 62.1116 29.5333C61.8244 29.2086 61.4732 28.9467 61.0802 28.764C60.6691 28.5735 60.221 28.4767 59.768 28.4804C59.3037 28.4779 58.8435 28.5671 58.4138 28.743C57.5766 29.0881 56.8982 29.7332 56.5111 30.5521C56.3127 30.9628 56.1993 31.4094 56.1778 31.865V32.0357C56.1737 32.5183 56.2693 32.9966 56.4586 33.4405C56.6391 33.867 56.9012 34.2541 57.2302 34.5801C57.5599 34.9055 57.9481 35.1657 58.3744 35.3468C58.8145 35.5362 59.2889 35.6328 59.768 35.6304C60.221 35.6341 60.6691 35.5373 61.0802 35.3468C61.473 35.1649 61.8241 34.9039 62.1116 34.5801C62.4071 34.2478 62.6345 33.8606 62.7808 33.4405C62.9369 32.9915 63.0141 32.5189 63.0091 32.0436L63.0196 32.0515Z" fill="#87AB48"/>
<path d="M69.4341 21.4196C69.4272 21.2015 69.4907 20.987 69.6152 20.8078C69.6895 20.7164 69.785 20.6447 69.8935 20.599C70.0019 20.5532 70.1199 20.5347 70.2372 20.5452H73.0138C73.0973 20.5469 73.1792 20.5685 73.2526 20.6082C73.3392 20.6531 73.4173 20.7126 73.4836 20.7842C73.5588 20.8604 73.6201 20.9493 73.6647 21.0468C73.7155 21.156 73.7407 21.2755 73.7381 21.396V38.3691C73.7466 38.4888 73.7292 38.609 73.6871 38.7213C73.645 38.8337 73.5791 38.9357 73.4941 39.0203C73.3212 39.1719 73.0965 39.2509 72.8668 39.2409H70.2424C70.1289 39.253 70.014 39.2394 69.9064 39.2013C69.7987 39.1631 69.701 39.1012 69.6204 39.0203C69.487 38.8305 69.423 38.6005 69.4394 38.3691L69.4341 21.4196Z" fill="#87AB48"/>
<path d="M91.2762 38.3926C91.2775 38.5184 91.2543 38.6433 91.208 38.7602C91.1652 38.8752 91.0859 38.9729 90.9823 39.0386C90.903 39.1203 90.8003 39.1754 90.6884 39.1961C90.5918 39.2174 90.4933 39.2288 90.3944 39.2303H88.1611C88.0296 39.2347 87.8985 39.2133 87.7753 39.1672C87.6832 39.1302 87.602 39.0706 87.5391 38.9939C87.4736 38.9096 87.4214 38.8157 87.3842 38.7156C87.3449 38.6053 87.3003 38.4872 87.2556 38.3585L87.1087 37.8491C86.8892 38.0636 86.656 38.2635 86.4106 38.4478C85.8519 38.8669 85.2174 39.1736 84.542 39.351C84.1769 39.4454 83.8011 39.4922 83.424 39.4902C82.7565 39.492 82.0917 39.4037 81.4478 39.2276C80.2149 38.8908 79.0918 38.2362 78.1909 37.3292C77.7449 36.88 77.3586 36.3752 77.0414 35.8272C76.7158 35.2676 76.4661 34.6672 76.2987 34.0417C76.1215 33.3896 76.0332 32.7166 76.0363 32.0408C76.03 31.0609 76.2171 30.0893 76.5868 29.1818C76.9565 28.2743 77.5017 27.4488 78.1909 26.7525C78.8753 26.0685 79.6881 25.5268 80.5827 25.1586C81.4772 24.7904 82.4357 24.603 83.403 24.6072C83.8453 24.6036 84.2863 24.6565 84.7152 24.7648C85.1012 24.8632 85.4739 25.0078 85.8253 25.1954C86.1559 25.3732 86.4628 25.592 86.7386 25.8466C87.0044 26.0951 87.2436 26.3705 87.4525 26.6685L87.7805 25.6365C87.8566 25.4501 87.917 25.2952 87.9669 25.1797C88.0032 25.0828 88.0575 24.9937 88.1269 24.9171C88.1846 24.8599 88.2575 24.8207 88.3369 24.8042C88.4519 24.7824 88.5689 24.7727 88.6859 24.7753H90.3761C90.4749 24.778 90.5732 24.7894 90.67 24.8094C90.7817 24.8323 90.8841 24.8881 90.9639 24.9696C91.0627 25.0427 91.1406 25.1405 91.1896 25.2532C91.2379 25.3677 91.2611 25.4913 91.2579 25.6155L91.2762 38.3926ZM80.1173 32.0435C80.113 32.5198 80.1911 32.9933 80.3482 33.443C80.4918 33.86 80.7176 34.244 81.0122 34.5721C81.3126 34.903 81.6801 35.1662 82.09 35.3441C82.5 35.5221 82.9431 35.6107 83.3899 35.604C83.8746 35.6087 84.3551 35.514 84.8018 35.3257C85.2235 35.1477 85.6081 34.8921 85.9356 34.5721C86.2597 34.25 86.5158 33.866 86.6888 33.443C87.0534 32.5511 87.0534 31.5516 86.6888 30.6597C86.5134 30.2302 86.2577 29.838 85.9356 29.5043C85.6123 29.1706 85.2273 28.903 84.8018 28.7166C84.3571 28.5208 83.8757 28.4223 83.3899 28.4278C82.9268 28.421 82.4681 28.5198 82.0488 28.7166C81.6514 28.9028 81.2981 29.1713 81.0122 29.5043C80.7193 29.8436 80.4939 30.2358 80.3482 30.6597C80.1892 31.1037 80.1076 31.5718 80.1068 32.0435H80.1173Z" fill="#87AB48"/>
<path d="M96.14 34.7534C96.3374 34.9568 96.5606 35.1333 96.8039 35.2786C97.0224 35.4112 97.2515 35.5253 97.4889 35.62C97.6762 35.697 97.8693 35.7593 98.0663 35.8064C98.1781 35.8351 98.2923 35.8536 98.4074 35.8615C98.5492 35.8615 98.7329 35.8615 98.9559 35.8458C99.1726 35.8362 99.3875 35.8019 99.5963 35.7434C99.7902 35.692 99.9698 35.5967 100.121 35.465C100.196 35.3968 100.255 35.3125 100.293 35.2184C100.331 35.1243 100.348 35.0228 100.342 34.9215C100.35 34.7447 100.307 34.5692 100.216 34.4173C100.123 34.2831 99.9987 34.1739 99.8535 34.0996C99.668 34.0022 99.4727 33.9247 99.2709 33.8685C99.0399 33.8003 98.7801 33.7215 98.4835 33.6296C97.7014 33.4362 96.9473 33.1432 96.2397 32.7578C95.7096 32.4639 95.2359 32.0781 94.8409 31.6182C94.5098 31.2214 94.2649 30.76 94.1218 30.2633C93.9834 29.7649 93.9145 29.2498 93.9171 28.7325C93.9097 28.1406 94.0381 27.5549 94.2924 27.0205C94.543 26.5074 94.9074 26.0583 95.3579 25.7076C95.8508 25.3228 96.4117 25.0342 97.0113 24.8568C98.1416 24.5329 99.3308 24.4709 100.489 24.6757C100.898 24.7529 101.297 24.878 101.677 25.0485C102.07 25.227 102.441 25.448 102.785 25.7076C103.167 25.9981 103.525 26.3186 103.856 26.666C103.968 26.7812 104.037 26.9313 104.053 27.0914C104.043 27.1772 104.014 27.2598 103.969 27.3334C103.923 27.4069 103.862 27.4695 103.79 27.5168C103.496 27.7583 103.213 27.9947 102.945 28.231C102.677 28.4673 102.399 28.7246 102.113 29.0187C102.039 29.087 101.949 29.1357 101.851 29.1605C101.765 29.1827 101.674 29.1827 101.588 29.1605C101.502 29.1376 101.422 29.0993 101.349 29.0476C101.273 28.9935 101.205 28.929 101.147 28.8559C100.907 28.5757 100.592 28.3692 100.239 28.2599C99.9318 28.1628 99.6117 28.1115 99.2892 28.1076C98.9827 28.092 98.6775 28.1582 98.4048 28.2992C98.3007 28.356 98.2158 28.4425 98.1611 28.5477C98.1064 28.653 98.0844 28.7722 98.0978 28.89C98.1007 28.9774 98.1218 29.0631 98.1598 29.1418C98.1977 29.2205 98.2517 29.2903 98.3182 29.3469C98.4645 29.4621 98.6297 29.5509 98.8064 29.6095C99.0059 29.6795 99.2103 29.7348 99.4178 29.7749C99.6186 29.8113 99.8175 29.8577 100.014 29.9141C100.649 30.1183 101.273 30.3567 101.882 30.6283C102.419 30.8673 102.917 31.187 103.357 31.5762C103.772 31.9506 104.102 32.4089 104.325 32.9206C104.571 33.5245 104.689 34.1727 104.672 34.8243C104.684 35.5193 104.53 36.207 104.223 36.8304C103.931 37.4127 103.51 37.9209 102.992 38.3166C102.437 38.7345 101.808 39.0461 101.139 39.2357C100.39 39.4509 99.6144 39.557 98.8352 39.5508C98.3567 39.5508 97.879 39.5096 97.4075 39.4273C96.9257 39.3438 96.4542 39.2091 96.0009 39.0256C95.5447 38.8374 95.1115 38.5978 94.7096 38.3114C94.2976 38.0169 93.9315 37.6629 93.6231 37.2611C93.5422 37.1615 93.4792 37.0487 93.4368 36.9276C93.3964 36.8166 93.3769 36.6991 93.3791 36.581C93.3822 36.4735 93.4053 36.3675 93.4473 36.2685C93.4911 36.1717 93.5588 36.0877 93.6441 36.0243L95.1059 34.5618C95.1665 34.4968 95.2426 34.4482 95.3271 34.4207C95.4115 34.3931 95.5016 34.3874 95.5888 34.4042C95.7945 34.4815 95.9821 34.6004 96.14 34.7534V34.7534Z" fill="#87AB48"/>
<path d="M107.981 22.5882C107.975 22.4885 107.993 22.3888 108.033 22.2974C108.073 22.206 108.135 22.1256 108.212 22.063C108.417 21.9209 108.64 21.8086 108.876 21.7295L111.448 20.8342C111.484 20.8305 111.52 20.8305 111.556 20.8342H111.653C111.759 20.8204 111.867 20.8356 111.966 20.8781C112.064 20.9206 112.149 20.9889 112.212 21.0757C112.314 21.2732 112.363 21.4941 112.354 21.7164V24.8359H113.905C114.122 24.8265 114.335 24.9039 114.495 25.0512C114.576 25.1373 114.637 25.2392 114.676 25.3504C114.715 25.4616 114.73 25.5797 114.721 25.6971V27.866C114.732 27.9912 114.717 28.1173 114.679 28.2368C114.64 28.3563 114.577 28.4668 114.495 28.5619C114.417 28.6369 114.324 28.6954 114.223 28.7337C114.121 28.7721 114.013 28.7895 113.905 28.785H112.354V38.3534C112.362 38.4736 112.344 38.5941 112.301 38.7066C112.258 38.8191 112.191 38.9208 112.104 39.0046C111.91 39.1614 111.664 39.2401 111.414 39.2252H108.861C108.278 39.2252 107.989 38.9364 107.989 38.3534V28.785H106.824C106.242 28.785 105.95 28.4787 105.95 27.866V25.6787C105.95 25.1046 106.242 24.8175 106.824 24.8175H107.989L107.981 22.5882Z" fill="#87AB48"/>
<path d="M116.827 25.718C116.822 25.4923 116.894 25.2716 117.032 25.0931C117.11 25.0025 117.208 24.9316 117.318 24.886C117.429 24.8404 117.548 24.8213 117.667 24.8305H120.263C120.364 24.8328 120.464 24.8542 120.557 24.8935C120.664 24.9366 120.764 24.9979 120.851 25.0747C120.942 25.1541 121.021 25.2471 121.084 25.3504C121.148 25.4612 121.181 25.5874 121.179 25.7154V38.3691C121.187 38.4881 121.171 38.6077 121.13 38.7199C121.089 38.8321 121.025 38.9344 120.943 39.0202C120.752 39.1778 120.509 39.2567 120.263 39.2408H117.667C117.108 39.2408 116.827 38.952 116.827 38.3691V25.718Z" fill="#87AB48"/>
<path d="M133.113 34.7979C133.201 34.7295 133.303 34.6811 133.412 34.6561C133.484 34.64 133.558 34.6303 133.632 34.6272C133.754 34.6251 133.875 34.653 133.984 34.7086C134.12 34.7918 134.233 34.9084 134.312 35.0473L135.582 36.9642C135.622 37.0295 135.658 37.097 135.69 37.1663C135.719 37.2236 135.736 37.2861 135.74 37.3501C135.743 37.428 135.731 37.5058 135.703 37.5786C135.675 37.6513 135.632 37.7175 135.577 37.7729C135.468 37.8822 135.349 37.9799 135.22 38.0644C134.591 38.4983 133.907 38.8462 133.186 39.0989C132.434 39.3631 131.642 39.4955 130.845 39.4902C130.181 39.4915 129.52 39.4031 128.88 39.2276C128.262 39.0601 127.67 38.8101 127.119 38.4845C126.574 38.1634 126.071 37.7753 125.623 37.3291C125.171 36.8829 124.782 36.3777 124.465 35.8272C124.145 35.2653 123.896 34.6655 123.725 34.0417C123.368 32.73 123.368 31.3464 123.725 30.0347C123.894 29.4102 124.143 28.8101 124.465 28.2492C124.782 27.7008 125.172 27.1974 125.623 26.7525C126.309 26.0676 127.123 25.5252 128.019 25.1566C128.916 24.7879 129.876 24.6003 130.845 24.6046C131.619 24.5963 132.389 24.707 133.128 24.9328C133.83 25.1529 134.494 25.4816 135.094 25.9069L135.06 25.8728C135.215 25.9598 135.349 26.0778 135.456 26.2194C135.548 26.3536 135.597 26.5124 135.597 26.675C135.597 26.8376 135.548 26.9964 135.456 27.1306L134.446 28.8426C134.236 29.2128 133.979 29.3993 133.677 29.3993C133.587 29.3969 133.498 29.3791 133.415 29.3467C133.298 29.3029 133.188 29.2438 133.086 29.1708C132.75 28.9566 132.391 28.7805 132.016 28.6457C131.625 28.5055 131.213 28.4353 130.798 28.4382C130.344 28.4327 129.895 28.5315 129.486 28.727C129.092 28.9135 128.742 29.1821 128.46 29.5148C128.17 29.8567 127.946 30.2481 127.796 30.6701C127.481 31.5712 127.481 32.5524 127.796 33.4535C127.943 33.8686 128.169 34.2518 128.46 34.5826C128.746 34.9019 129.095 35.1585 129.486 35.3362C129.897 35.5246 130.345 35.6197 130.798 35.6145C131.213 35.6171 131.625 35.5396 132.01 35.3861C132.399 35.2323 132.769 35.0349 133.113 34.7979V34.7979Z" fill="#87AB48"/>
<path d="M117.967 23.3705C117.967 23.3705 113.661 16.0183 124.568 13.0197C124.568 13.0197 128.52 22.2099 118.634 24.1609L122.111 18.455L117.967 23.3705Z" fill="#87AB48"/>
</svg>
